# xmcd
#
# Track frame offsets:
#	150
#	14436
#	29622
#	44859
#	56560
#	70711
#	84289
#	97185
#	110050
#	128243
#	141259
#	154582
#	167142
#	182964
#	202754
#	218630
#	230943
#	244274
#	257776
#	270366
#
# Disc length: 3769 seconds
#
# Revision: 0
# Processed by: cddbd v1.5.2PL0 Copyright (c) Steve Scherf et al.
# Submitted via: dBpowerAMP V4.0
#
DISCID=2a0eb714
DTITLE=Varios - Los 100 mejores Boleros de la Historia 4
DYEAR=1900
DGENRE=Blues
TTITLE0=401 Que nadie sepa mi sufrir (Los Tres Reyes)
TTITLE1=402 La paloma (Los Panchos y Mari Trini)
TTITLE2=403 Júrame (Boleros Bengalíes)
TTITLE3=404 Lo que estoy viviendo (Vicentico Valdés)
TTITLE4=405 Señora (Bienvenido Granda)
TTITLE5=406 El cu-cu (Bobby Capó)
TTITLE6=407 Dos gardenias (Antonio Machín)
TTITLE7=408 Cuando estoy contigo (Moncho)
TTITLE8=409 La mentira (Boleros Bengalíes)
TTITLE9=410 Quién, pero quién (Celeste Mendoza)
TTITLE10=411 No me quieras tanto (Los Tres Reyes)
TTITLE11=412 Total (Celio Gonzalez)
TTITLE12=413 No pienses así (Elena Burke)
TTITLE13=414 Cuenta conmigo (Gloria Lasso y David Tissot)
TTITLE14=415 Mientras existas tú (Paula Monsalve)
TTITLE15=416 Esperaré (Moncho)
TTITLE16=417 Aunque me cueste la vida (Alberto Beltrán)
TTITLE17=418 Me interesa tu opinión (Vicentico Valdés)
TTITLE18=419 Sin remedio (Los Tres Reyes)
TTITLE19=420 Locamente enamorado (Bobby Capó)
EXTD=
EXTT0=
EXTT1=
EXTT2=
EXTT3=
EXTT4=
EXTT5=
EXTT6=
EXTT7=
EXTT8=
EXTT9=
EXTT10=
EXTT11=
EXTT12=
EXTT13=
EXTT14=
EXTT15=
EXTT16=
EXTT17=
EXTT18=
EXTT19=
PLAYORDER=
